<?xml version="1.0" encoding="utf-8"?>
<!-- Generator: Adobe Illustrator 25.3.1, SVG Export Plug-In . SVG Version: 6.00 Build 0)  -->
<svg version="1.1" id="レイヤー_1" xmlns="http://www.w3.org/2000/svg" xmlns:xlink="http://www.w3.org/1999/xlink" x="0px"
	 y="0px" viewBox="0 0 140 35.4" style="enable-background:new 0 0 140 35.4;" xml:space="preserve">
<style type="text/css">
	.st0{fill:#FFFFFF;}
</style>
<g>
	<g>
		<path class="st0" d="M127,27.3c-0.7,0-1-0.3-1-0.9V8.1h3.2v16.3h8.9v2.9H127z"/>
	</g>
	<g>
		<path class="st0" d="M114.8,27.7c-2.9,0-4.7-0.6-5.8-1.9c-0.5-0.6-0.9-1.4-1.1-2.4c-0.2-0.9-0.3-2-0.3-3.4V8.1h3.2v12.6
			c0,1.3,0.1,2.3,0.7,3c0.6,0.8,1.6,1.1,3.3,1.1c1.7,0,2.8-0.3,3.4-1.1c0.6-0.8,0.7-1.9,0.7-3V8.1h3.1v11.9c0,1.4-0.1,2.5-0.3,3.4
			c-0.2,1-0.6,1.8-1.1,2.4C119.5,27.1,117.6,27.7,114.8,27.7z"/>
	</g>
	<g>
		<rect x="74" y="8.1" class="st0" width="3.2" height="19.2"/>
	</g>
	<g>
		<path class="st0" d="M84.9,27.3l-6.8-9.2c-0.2-0.2-0.2-0.4,0-0.7l6.4-9.3h3.7l-6.7,9.2l7.5,9.9H84.9z"/>
	</g>
	<g>
		<path class="st0" d="M97.3,27.7c-2.1,0-4-0.6-5.4-1.7c-1.4-1.2-2.2-2.7-2.2-4.6H93c0,0.9,0.5,1.8,1.2,2.4c0.8,0.7,1.9,1.1,3.2,1.1
			s2.4-0.3,3.1-1c0.6-0.5,0.9-1.3,0.9-2.1c0-0.7-0.2-1.3-0.6-1.7c-0.5-0.6-1.4-0.9-2.5-1l-3.9-0.4c-1.3-0.1-2.4-0.7-3.2-1.7
			c-0.8-1-1.3-2.2-1.3-3.5c0-1.5,0.7-2.9,1.9-3.9c1.3-1.1,3.2-1.7,5.4-1.7c1,0,2,0.2,2.9,0.5c0.8,0.3,1.6,0.7,2.2,1.2
			c1.2,1,1.8,2.3,1.9,3.8h-3.2c0-0.7-0.4-1.3-1-1.8c-0.7-0.6-1.8-0.8-3-0.8c-1.2,0-2.1,0.2-2.7,0.7c-0.7,0.5-1,1.2-1,2.1
			c0,1.4,0.8,2.1,2.8,2.3l3.7,0.4c0.8,0.1,1.6,0.3,2.2,0.6c0.6,0.3,1.1,0.7,1.6,1.2c0.8,0.9,1.3,2.2,1.3,3.6c0,1.8-0.7,3.4-1.9,4.5
			C101.4,27.1,99.5,27.7,97.3,27.7z"/>
	</g>
	<g>
		<path class="st0" d="M68.3,27.3l-1.5-4.8h-7.7l-1.4,4.8h-3.3l5.8-19.2h5.4l5.9,19.2H68.3z M60,19.7h5.9l-2.8-9.2h-0.3L60,19.7z"/>
	</g>
	<g>
		<path class="st0" d="M48.7,27.3l-6.6-9.6c-0.1-0.2-0.1-0.3-0.1-0.4c0-0.1,0.2-0.1,0.3-0.1h3.1c1.1,0,1.8-0.2,2.3-0.6
			c0.5-0.5,0.8-1.2,0.8-2.5c0-1.2-0.2-2-0.8-2.5c-0.5-0.4-1.2-0.6-2.3-0.6h-4.2v16.3H38V8.1h8.6c1.8,0,3.1,0.4,3.9,1.4
			c0.8,0.9,1.2,2.3,1.2,4.4c0,1.8-0.3,3.1-1,3.9c-0.7,0.9-1.9,1.4-3.6,1.6l-0.2,0l6,7.9H48.7z"/>
	</g>
	<g>
		<path class="st0" d="M16.3,32c-1.9,0-3.8-0.4-5.6-1.1c-1.7-0.7-3.2-1.8-4.6-3.1c-1.3-1.3-2.3-2.8-3.1-4.6C2.3,21.5,2,19.6,2,17.7
			c0-1.9,0.4-3.8,1.1-5.6c0.7-1.7,1.8-3.2,3.1-4.5C7.5,6.3,9,5.2,10.7,4.5c1.8-0.7,3.6-1.1,5.6-1.1c1.9,0,3.8,0.4,5.6,1.1
			c1.7,0.7,3.2,1.7,4.5,3.1c1.3,1.3,2.3,2.8,3.1,4.5c0.7,1.8,1.1,3.6,1.1,5.6c0,1.9-0.4,3.8-1.1,5.6c-0.7,1.7-1.7,3.2-3.1,4.6
			c-1.3,1.3-2.8,2.3-4.5,3.1C20.1,31.6,18.2,32,16.3,32z M7.4,25.8c1.1,1.2,2.4,2.2,3.9,2.8c1.6,0.7,3.2,1,4.9,1
			c1.3,0,2.7-0.2,3.9-0.7c1.2-0.4,2.3-1,3.4-1.8l0.1-0.1l-5.6-8.3l-2.9,2.8c-0.1,0.1-0.2,0.1-0.3,0.1c-0.2,0-0.4-0.2-0.4-0.4v-8.8
			l-2.7,1.5v9.6l3.5,0.9l1.7-1.1l0.8,0.9l-2.6,2.8c-0.1,0.1-0.3,0.2-0.5,0.2c-0.1,0-0.1,0-0.2,0l-7.4-1.9L7.4,25.8z M8.9,23v-7.5
			l-4.6,2.4l0,0.1c0,1.4,0.3,2.7,0.7,3.9c0.4,1.2,1.1,2.3,1.9,3.4L8.9,23z M18.3,8.1c0.1,0,0.2,0,0.3,0.1l0,0l5.3,4
			c0.1,0.1,0.2,0.2,0.2,0.4c0,0.1,0,0.3-0.1,0.4l-3.8,3.8l5.9,7.9l0.1-0.2c1.4-2,2.1-4.4,2.1-6.8c0-3.1-1.2-6.1-3.3-8.3
			c-2.1-2.2-5-3.5-8.1-3.7l-0.1,0v3.2l1.4-0.7C18.2,8.1,18.2,8.1,18.3,8.1z M16.7,11.4v6.2l4-3.9L17.3,11L16.7,11.4z M14.4,5.9
			C12,6.3,9.8,7.3,8,9c-1.8,1.7-2.9,3.8-3.5,6.1l-0.1,0.3l10-5.3V5.8L14.4,5.9z"/>
	</g>
</g>
</svg>
